#define 9ab0c52d770944cfab1558adb8376b7eq64vDEbuNLorejBX_width 256
#define 9ab0c52d770944cfab1558adb8376b7eq64vDEbuNLorejBX_height 233
static char 9ab0c52d770944cfab1558adb8376b7eq64vDEbuNLorejBX_bits[] = {
  0x00, 0x00, 0x00, 0x00, 0x00, 0x00, 0x00, 0x00, 0x00, 0x00, 0x00, 0x00, 
  0x00, 0x00, 0x00, 0x00, 0x00, 0x00, 0x00, 0x00, 0x00, 0x00, 0x00, 0x00, 
  0x00, 0x00, 0x00, 0x00, 0x00, 0x00, 0x00, 0x00, 0x00, 0x00, 0x00, 0x00, 
  0x00, 0x00, 0x00, 0x00, 0x00, 0x00, 0x00, 0x00, 0x00, 0x00, 0x00, 0x00, 
  0x00, 0x00, 0x00, 0x00, 0x00, 0x00, 0x00, 0x00, 0x00, 0x00, 0x00, 0x00, 
  0x00, 0x00, 0x00, 0x00, 0x00, 0x00, 0x00, 0x00, 0x00, 0x00, 0x00, 0x00, 
  0x00, 0x00, 0x00, 0x00, 0x00, 0x00, 0x00, 0x00, 0x00, 0x00, 0x00, 0x00, 
  0x00, 0x00, 0x00, 0x00, 0x00, 0x00, 0x00, 0x00, 0x00, 0x00, 0x00, 0x00, 
  0x00, 0x00, 0x00, 0x00, 0x00, 0x00, 0x00, 0x00, 0x00, 0x00, 0x00, 0x00, 
  0x00, 0x00, 0x00, 0x00, 0x00, 0x00, 0x00, 0x00, 0x00, 0x00, 0x00, 0x00, 
  0x00, 0x00, 0x00, 0x00, 0x00, 0x00, 0x00, 0x00, 0x00, 0x00, 0x00, 0x00, 
  0x00, 0x00, 0x00, 0x00, 0x00, 0x00, 0x00, 0x00, 0x00, 0x00, 0x00, 0x00, 
  0x00, 0x00, 0x00, 0x00, 0x00, 0x00, 0x00, 0x00, 0x00, 0x00, 0x00, 0x00, 
  0x00, 0x00, 0x00, 0x00, 0x00, 0x00, 0x00, 0x00, 0x00, 0x00, 0x00, 0x00, 
  0x00, 0x00, 0x00, 0x00, 0x00, 0x00, 0x00, 0x00, 0x00, 0x00, 0x00, 0x00, 
  0x00, 0x00, 0x00, 0x00, 0x00, 0x00, 0x00, 0x00, 0x00, 0x00, 0x00, 0x00, 
  0x00, 0x00, 0x00, 0x00, 0x00, 0x00, 0x00, 0x00, 0x00, 0x00, 0x00, 0x00, 
  0x00, 0x00, 0x00, 0x00, 0x00, 0x00, 0x00, 0x00, 0x00, 0x00, 0x00, 0x00, 
  0x00, 0x00, 0x00, 0x00, 0x00, 0x00, 0x00, 0x00, 0x00, 0x00, 0x00, 0x00, 
  0x00, 0x00, 0x00, 0x00, 0x00, 0x00, 0x00, 0x00, 0x00, 0x00, 0x00, 0x00, 
  0x00, 0x00, 0x00, 0x00, 0x00, 0x00, 0x00, 0x00, 0x00, 0x00, 0x00, 0x00, 
  0x00, 0x00, 0x00, 0x00, 0x00, 0x00, 0x00, 0x00, 0x00, 0x00, 0x00, 0x00, 
  0x00, 0x00, 0x00, 0x00, 0x00, 0x00, 0x00, 0x00, 0x00, 0x00, 0x00, 0x00, 
  0x00, 0x00, 0x00, 0x00, 0x00, 0x00, 0x00, 0x00, 0x00, 0x00, 0x00, 0x00, 
  0x00, 0x00, 0x00, 0x00, 0x00, 0x00, 0x00, 0x00, 0x00, 0x00, 0x00, 0x00, 
  0x00, 0x00, 0x00, 0x00, 0x00, 0x00, 0x00, 0x00, 0x00, 0x00, 0x00, 0x00, 
  0x00, 0x00, 0x00, 0x00, 0x00, 0x00, 0x00, 0x00, 0x00, 0x00, 0x00, 0x00, 
  0x00, 0x00, 0x00, 0x00, 0x00, 0x00, 0x00, 0x00, 0x00, 0x00, 0x00, 0x00, 
  0x00, 0x00, 0x00, 0x00, 0x00, 0x00, 0x00, 0x00, 0x00, 0x00, 0x00, 0x00, 
  0x00, 0x00, 0x00, 0x00, 0x00, 0x00, 0x00, 0x00, 0x00, 0x00, 0x00, 0x00, 
  0x00, 0x00, 0x00, 0x00, 0x00, 0x00, 0x00, 0x00, 0x00, 0x00, 0x00, 0x00, 
  0x00, 0x00, 0x00, 0x00, 0x00, 0x00, 0x00, 0x00, 0x00, 0x00, 0x00, 0x00, 
  0x00, 0x00, 0x00, 0x00, 0x00, 0x00, 0x00, 0x00, 0x00, 0x00, 0x00, 0x00, 
  0x00, 0x00, 0x00, 0x00, 0x00, 0x00, 0x00, 0x00, 0x00, 0x00, 0x00, 0x00, 
  0x00, 0x00, 0x00, 0x00, 0x00, 0x00, 0x00, 0x00, 0x00, 0x00, 0x00, 0x00, 
  0x00, 0x00, 0x00, 0x00, 0x00, 0x00, 0x00, 0x00, 0x00, 0x00, 0x00, 0x00, 
  0x00, 0x00, 0x00, 0x00, 0x00, 0x00, 0x00, 0x00, 0x00, 0x00, 0x00, 0x00, 
  0x00, 0x00, 0x00, 0x00, 0x00, 0x00, 0x00, 0x00, 0x00, 0x00, 0x00, 0x00, 
  0x00, 0x00, 0x00, 0x00, 0x00, 0x00, 0x00, 0x00, 0x00, 0x00, 0x00, 0x00, 
  0x00, 0x00, 0x00, 0x00, 0x00, 0x00, 0x00, 0x00, 0x00, 0x00, 0x00, 0x00, 
  0x00, 0x00, 0x00, 0x00, 0x00, 0x00, 0x00, 0x00, 0x00, 0x00, 0x00, 0x00, 
  0x00, 0x00, 0x00, 0x00, 0x00, 0x0A, 0x00, 0x00, 0x00, 0x00, 0x00, 0x00, 
  0x00, 0x00, 0x00, 0x00, 0x00, 0x00, 0x00, 0x00, 0x00, 0x00, 0x00, 0x00, 
  0x00, 0x00, 0x00, 0x00, 0x00, 0x00, 0x00, 0x00, 0x00, 0x00, 0x00, 0x00, 
  0x68, 0x6A, 0x01, 0x00, 0x00, 0x00, 0x00, 0x00, 0x00, 0x00, 0x00, 0x00, 
  0x00, 0x00, 0x00, 0x00, 0x00, 0x00, 0x00, 0x00, 0x00, 0x00, 0x00, 0x00, 
  0x00, 0x00, 0x00, 0x00, 0x00, 0x00, 0x00, 0x80, 0xBD, 0xDD, 0x0E, 0x80, 
  0x16, 0x00, 0x00, 0x00, 0x00, 0x00, 0x00, 0x00, 0x00, 0x00, 0x00, 0x00, 
  0x00, 0x00, 0x00, 0x00, 0x00, 0x00, 0x00, 0x00, 0x00, 0x00, 0x00, 0x00, 
  0x00, 0x00, 0x00, 0xA0, 0x65, 0x66, 0x6A, 0xFE, 0xFF, 0x01, 0x00, 0x00, 
  0x00, 0x00, 0x00, 0x00, 0x00, 0x00, 0x00, 0x00, 0x00, 0x00, 0x00, 0x00, 
  0x00, 0x00, 0x00, 0x00, 0x00, 0x00, 0x00, 0x00, 0x00, 0x00, 0x00, 0x58, 
  0xAA, 0x9A, 0x95, 0xFF, 0xFF, 0x07, 0x00, 0x00, 0x00, 0x00, 0x00, 0x00, 
  0x00, 0x00, 0x00, 0x00, 0x00, 0x00, 0x00, 0x00, 0x00, 0x00, 0x00, 0x00, 
  0x00, 0x00, 0x00, 0x00, 0x00, 0x00, 0x00, 0xA4, 0xED, 0x5D, 0x29, 0xFE, 
  0xFF, 0x0F, 0x00, 0x00, 0x00, 0x00, 0x00, 0x00, 0x00, 0x00, 0x00, 0x00, 
  0x00, 0x00, 0x00, 0x00, 0x00, 0x00, 0x00, 0x00, 0x00, 0x00, 0x00, 0x00, 
  0x00, 0x00, 0x00, 0xD9, 0x77, 0xFB, 0x57, 0xFE, 0xFF, 0x3F, 0x00, 0x00, 
  0x00, 0x00, 0x00, 0x00, 0x00, 0x00, 0x00, 0x00, 0x00, 0x00, 0x00, 0x00, 
  0x00, 0x00, 0x00, 0x00, 0x00, 0x00, 0x00, 0x00, 0x00, 0x00, 0x80, 0x76, 
  0xAE, 0xDE, 0x5B, 0xF8, 0xFF, 0x3F, 0x61, 0x91, 0x00, 0x02, 0x00, 0x00, 
  0x00, 0x00, 0x00, 0x00, 0x00, 0x00, 0x00, 0x00, 0x00, 0x00, 0x00, 0x00, 
  0x00, 0x00, 0x00, 0x00, 0x00, 0x00, 0x40, 0xDD, 0xF7, 0xB7, 0x6E, 0xF8, 
  0x57, 0x48, 0x9A, 0x2A, 0xB6, 0x4C, 0x00, 0x00, 0x00, 0x00, 0x00, 0x00, 
  0x00, 0x00, 0x00, 0x00, 0x00, 0x00, 0x00, 0x00, 0x00, 0x00, 0x00, 0x00, 
  0x00, 0x00, 0x20, 0x5D, 0xFB, 0x7E, 0x75, 0xB1, 0xAD, 0x5A, 0x89, 0xAA, 
  0x45, 0x55, 0x1B, 0x00, 0x00, 0x00, 0x00, 0x00, 0x00, 0x00, 0x00, 0x00, 
  0x00, 0x00, 0x00, 0x00, 0x00, 0x00, 0x00, 0x00, 0x00, 0x00, 0xD0, 0xDB, 
  0x5D, 0xD7, 0xDF, 0x52, 0x52, 0x24, 0x7A, 0x55, 0x9A, 0xAA, 0x64, 0x05, 
  0x00, 0x00, 0x00, 0x00, 0x00, 0x00, 0x00, 0x00, 0x00, 0x00, 0x00, 0x00, 
  0x00, 0x00, 0x00, 0x00, 0x00, 0x00, 0xE0, 0xFE, 0xF7, 0xFF, 0xAD, 0xA3, 
  0xC1, 0xFB, 0xED, 0xFA, 0x7F, 0x95, 0x59, 0xAA, 0x00, 0x00, 0x00, 0x00, 
  0x00, 0x00, 0x00, 0x00, 0x00, 0x00, 0x00, 0x00, 0x00, 0x00, 0x00, 0x00, 
  0x00, 0x00, 0x58, 0x57, 0xFD, 0xFF, 0xF7, 0x41, 0x7E, 0x5E, 0x77, 0x9F, 
  0xEA, 0x6F, 0xAB, 0x55, 0x0A, 0x00, 0x00, 0x00, 0x00, 0x00, 0x00, 0x00, 
  0x00, 0x00, 0x00, 0x00, 0x00, 0x00, 0x00, 0x00, 0x00, 0x00, 0xEC, 0xF7, 
  0x3F, 0x00, 0xFF, 0xC2, 0xAE, 0xBD, 0xF5, 0xEE, 0xB7, 0xED, 0x6E, 0x55, 
  0x26, 0x00, 0x00, 0x00, 0x00, 0x00, 0x00, 0x00, 0x00, 0x00, 0x00, 0x00, 
  0x00, 0x00, 0x00, 0x00, 0x00, 0x00, 0x7A, 0xF5, 0x07, 0x00, 0x7C, 0x4F, 
  0xF7, 0xEB, 0x5F, 0xB7, 0xEE, 0x77, 0xF7, 0xB7, 0x95, 0x04, 0x00, 0x00, 
  0x00, 0x00, 0x00, 0x00, 0x00, 0x00, 0x00, 0x00, 0x00, 0x00, 0x00, 0x00, 
  0x00, 0x00, 0xAC, 0xFF, 0x00, 0x00, 0xF8, 0xE7, 0xBA, 0x7F, 0xDD, 0x7A, 
  0xF5, 0xAB, 0x4A, 0xFB, 0x5D, 0x06, 0x00, 0x00, 0x00, 0x00, 0x00, 0x00, 
  0x00, 0x00, 0x00, 0x00, 0x00, 0x00, 0x00, 0x00, 0x00, 0x00, 0xF7, 0x3D, 
  0xE0, 0x03, 0xF0, 0x55, 0xDF, 0xEA, 0x7B, 0xDF, 0x5F, 0xFE, 0xFF, 0xAE, 
  0xFB, 0x6B, 0x00, 0x00, 0x00, 0x00, 0x00, 0x00, 0x00, 0x00, 0x00, 0x00, 
  0x00, 0x00, 0x00, 0x00, 0x00, 0x00, 0xFA, 0x0F, 0xF8, 0x0A, 0xE0, 0xEF, 
  0xEA, 0x7B, 0xDE, 0x57, 0xFA, 0xFF, 0xFF, 0xEA, 0xAD, 0x73, 0x05, 0x00, 
  0x00, 0x00, 0x00, 0x00, 0x00, 0x00, 0x00, 0x00, 0x00, 0x00, 0x00, 0x00, 
  0x00, 0x80, 0xAF, 0x07, 0xF4, 0x1F, 0xE0, 0x97, 0x7F, 0xED, 0xBB, 0xFE, 
  0xAF, 0x55, 0x55, 0xBF, 0xF7, 0x9D, 0x16, 0x00, 0x00, 0x00, 0x00, 0x00, 
  0x00, 0x00, 0x00, 0x00, 0x00, 0x00, 0x00, 0x00, 0x00, 0x80, 0x77, 0x07, 
  0xF6, 0x2F, 0xC0, 0xEE, 0xAB, 0x5F, 0xFA, 0xD7, 0x77, 0xEE, 0xEE, 0x7B, 
  0xBF, 0xFF, 0x95, 0x00, 0x00, 0x00, 0x00, 0x00, 0x00, 0x00, 0x00, 0x00, 
  0x00, 0x00, 0x00, 0x00, 0x00, 0xC0, 0xED, 0x03, 0xFC, 0x1F, 0xC0, 0x37, 
  0xFD, 0xF5, 0xAF, 0xBD, 0xED, 0xB6, 0x76, 0xDD, 0xDA, 0x5D, 0x6F, 0x02, 
  0x00, 0x00, 0x00, 0x00, 0x00, 0x00, 0x00, 0x00, 0x00, 0x00, 0x00, 0x00, 
  0x00, 0x40, 0xE7, 0x01, 0xFA, 0x0F, 0xC0, 0xF7, 0x76, 0x7F, 0xFE, 0x6E, 
  0x5F, 0xED, 0xB7, 0xBB, 0xAE, 0xD6, 0x6E, 0x06, 0x00, 0x00, 0x00, 0x00, 
  0x00, 0x00, 0x00, 0x00, 0x00, 0x00, 0x00, 0x00, 0x00, 0xE0, 0xFD, 0x03, 
  0xFC, 0x01, 0xE0, 0x9D, 0xEF, 0xE5, 0xA7, 0xF7, 0xF5, 0xBB, 0xA9, 0x00, 
  0x00, 0x02, 0x48, 0x01, 0x00, 0x00, 0x00, 0x00, 0x00, 0x00, 0x00, 0x00, 
  0x00, 0x00, 0x00, 0x00, 0x00, 0xE0, 0xF5, 0x01, 0xFE, 0x03, 0xC0, 0x75, 
  0x54, 0x5E, 0x7A, 0x2A, 0xDF, 0x27, 0x00, 0x90, 0x00, 0x40, 0x02, 0x00, 
  0x00, 0x00, 0x00, 0x00, 0x00, 0x00, 0x00, 0x00, 0x00, 0x00, 0x00, 0x00, 
  0x00, 0xA0, 0xFF, 0x00, 0xFA, 0x03, 0xC0, 0x9F, 0xFF, 0xF7, 0xDF, 0xFF, 
  0x15, 0x40, 0x24, 0x09, 0x4A, 0x24, 0x90, 0x00, 0x00, 0x00, 0x00, 0x00, 
  0x00, 0x00, 0x00, 0x00, 0x00, 0x00, 0x00, 0x00, 0x00, 0x70, 0xED, 0x01, 
  0xF8, 0x07, 0xC0, 0x7F, 0xFF, 0xD6, 0x6B, 0xBE, 0x24, 0x49, 0x49, 0x00, 
  0x92, 0x04, 0x04, 0x00, 0x00, 0x00, 0x00, 0x00, 0x00, 0x00, 0x00, 0x00, 
  0x00, 0x00, 0x00, 0x00, 0x00, 0xF0, 0xFB, 0x00, 0xFC, 0x0B, 0xC0, 0xBB, 
  0x2A, 0xB7, 0xFD, 0x2B, 0x00, 0x00, 0x00, 0xA6, 0x00, 0x60, 0x41, 0x01, 
  0x00, 0x00, 0x00, 0x00, 0x00, 0x00, 0x00, 0x00, 0x00, 0x00, 0x00, 0x00, 
  0x00, 0x46, 0xFF, 0x00, 0xD4, 0x03, 0xC0, 0xA6, 0xF7, 0xFA, 0xAF, 0x40, 
  0x60, 0x10, 0x90, 0x20, 0x06, 0x09, 0x50, 0x00, 0x00, 0x00, 0x00, 0x00, 
  0x00, 0x00, 0x00, 0x00, 0x00, 0x00, 0x00, 0x00, 0x00, 0xFA, 0xFA, 0x00, 
  0xF0, 0x1F, 0xC0, 0xEF, 0x6E, 0xAF, 0x25, 0x05, 0x09, 0x49, 0x09, 0x04, 
  0x90, 0x40, 0x04, 0x00, 0x00, 0x00, 0x00, 0x00, 0x00, 0x00, 0x00, 0x00, 
  0x00, 0x00, 0x00, 0x00, 0x80, 0xE2, 0xFF, 0xC1, 0xFF, 0xFF, 0xFF, 0xEA, 
  0xBD, 0xBF, 0x09, 0x04, 0x04, 0x02, 0x02, 0x40, 0x08, 0x44, 0x09, 0x00, 
  0x00, 0x00, 0x00, 0x00, 0x00, 0x00, 0x00, 0x00, 0x00, 0x00, 0x00, 0x00, 
  0x60, 0xBD, 0xDA, 0xFF, 0xFF, 0xFF, 0xFF, 0x7F, 0xD7, 0x2A, 0x20, 0x60, 
  0x61, 0x40, 0xE0, 0x19, 0x02, 0x11, 0x60, 0x00, 0x00, 0x00, 0x00, 0x00, 
  0x00, 0x00, 0x00, 0x00, 0x00, 0x00, 0x00, 0x00, 0x98, 0x7A, 0xF7, 0xFF, 
  0x2F, 0xE9, 0xFF, 0xA9, 0xFD, 0x01, 0xA6, 0x09, 0x00, 0x59, 0xFC, 0x03, 
  0xD0, 0x00, 0x88, 0x00, 0x00, 0x00, 0x00, 0x00, 0x00, 0x00, 0x00, 0x00, 
  0x80, 0xBA, 0x0A, 0x00, 0xA8, 0xDF, 0xEE, 0x3F, 0x90, 0x00, 0xE2, 0xFF, 
  0x17, 0x48, 0x00, 0x40, 0x24, 0x00, 0xFE, 0x4B, 0x0A, 0x6A, 0x23, 0x00, 
  0x00, 0x00, 0x00, 0x00, 0x00, 0x00, 0x00, 0x40, 0xFF, 0xE7, 0xFF, 0x07, 
  0xEA, 0xFB, 0xFB, 0x0B, 0x00, 0x00, 0x24, 0xFE, 0x00, 0x00, 0x00, 0x49, 
  0x99, 0x24, 0x5E, 0x24, 0x18, 0x86, 0x28, 0x00, 0x00, 0x00, 0x00, 0x00, 
  0x00, 0x00, 0x00, 0xFD, 0x82, 0x14, 0x80, 0x74, 0x79, 0x5D, 0xFF, 0x00, 
  0x00, 0x44, 0x01, 0x19, 0x95, 0x59, 0x9A, 0x00, 0x00, 0x00, 0x26, 0xA5, 
  0xC3, 0x30, 0x66, 0x00, 0x00, 0x00, 0x00, 0x00, 0x00, 0x00, 0xE0, 0x13, 
  0x55, 0x50, 0x04, 0xAC, 0xDD, 0x5F, 0xBF, 0x00, 0x48, 0x01, 0x60, 0x00, 
  0x04, 0x40, 0x02, 0x10, 0x41, 0x63, 0xC2, 0x42, 0x28, 0x49, 0x42, 0x00, 
  0x00, 0x00, 0x00, 0x00, 0x00, 0x00, 0x38, 0x48, 0x00, 0x05, 0x62, 0x5A, 
  0xB7, 0xF5, 0x1F, 0x00, 0x00, 0x10, 0x04, 0x42, 0x40, 0x02, 0x40, 0x49, 
  0x18, 0x88, 0x15, 0x18, 0x4A, 0x25, 0x18, 0x00, 0x00, 0x00, 0x00, 0x00, 
  0x00, 0xC0, 0x8B, 0x80, 0xE9, 0x96, 0x04, 0xEC, 0x6E, 0xFA, 0x1F, 0x00, 
  0x10, 0x00, 0x04, 0x49, 0x92, 0x49, 0x90, 0x84, 0x52, 0x31, 0x8C, 0xA5, 
  0x44, 0xD8, 0x65, 0x00, 0x00, 0x00, 0x00, 0x00, 0x00, 0xA0, 0x24, 0xFD, 
  0xFF, 0xFF, 0x5F, 0x97, 0x77, 0xEF, 0x07, 0x04, 0x04, 0x48, 0x60, 0x10, 
  0x08, 0x10, 0x02, 0x20, 0x14, 0x8C, 0x31, 0x81, 0x95, 0x02, 0x01, 0x00, 
  0x00, 0x00, 0x00, 0x00, 0x00, 0x1E, 0xE0, 0xFF, 0xFF, 0xFF, 0x7F, 0x79, 
  0xAA, 0xFB, 0x01, 0x00, 0x40, 0x01, 0x01, 0x00, 0x00, 0x00, 0x8A, 0x5A, 
  0xC3, 0x92, 0x49, 0x3C, 0x18, 0xA6, 0x38, 0x00, 0x00, 0x00, 0x00, 0x00, 
  0xC0, 0xA5, 0xFF, 0xFF, 0xFF, 0xFF, 0xFF, 0xEB, 0xFF, 0xFD, 0x01, 0x00, 
  0x11, 0x20, 0x24, 0x49, 0x92, 0x49, 0x30, 0x22, 0x28, 0x45, 0x22, 0x41, 
  0xC3, 0x28, 0x06, 0x00, 0x00, 0x00, 0x00, 0x00, 0x70, 0xE4, 0xFF, 0xFF, 
  0xFF, 0xFF, 0x7F, 0xDE, 0x5F, 0xFF, 0x01, 0x22, 0x00, 0x80, 0x00, 0x42, 
  0x22, 0x09, 0x14, 0xC3, 0x41, 0x44, 0xA2, 0x82, 0x34, 0x51, 0x28, 0x00, 
  0x00, 0x00, 0x00, 0x00, 0x5C, 0xFF, 0xFF, 0xFF, 0xFF, 0xFF, 0xBF, 0xBB, 
  0xF5, 0x75, 0x10, 0x00, 0x84, 0x08, 0x96, 0x00, 0x00, 0x50, 0x49, 0x18, 
  0x3C, 0x92, 0x49, 0x3C, 0x82, 0x14, 0x03, 0x00, 0x00, 0x00, 0x00, 0x00, 
  0x97, 0xFF, 0xFF, 0xFF, 0xFF, 0xFF, 0xDF, 0xFA, 0xDE, 0x3F, 0x80, 0x40, 
  0x11, 0x21, 0x00, 0x66, 0x56, 0x15, 0xA8, 0x95, 0x82, 0x8C, 0x31, 0x41, 
  0x8C, 0xCA, 0x14, 0x00, 0x00, 0x00, 0x00, 0xC0, 0xF9, 0xFF, 0xFF, 0xFF, 
  0xFF, 0xFF, 0x6F, 0xAF, 0xBB, 0x3D, 0x04, 0x04, 0x00, 0x80, 0x22, 0x00, 
  0x00, 0xC4, 0x23, 0x44, 0xA5, 0x31, 0x8C, 0xA5, 0x31, 0x22, 0x12, 0x00, 
  0x00, 0x00, 0x00, 0x38, 0xFE, 0xFF, 0xFF, 0xFF, 0xFF, 0xFF, 0xBF, 0xF5, 
  0xFA, 0x3F, 0x02, 0x10, 0x80, 0x20, 0x92, 0x08, 0x50, 0x4A, 0x90, 0x4A, 
  0x18, 0x86, 0x61, 0x18, 0x86, 0x9C, 0x04, 0x00, 0x00, 0x00, 0x00, 0xEA, 
  0xFF, 0xFF, 0xFF, 0xFF, 0xFF, 0xFF, 0xBB, 0xAF, 0xAF, 0x1F, 0x80, 0x01, 
  0x20, 0x00, 0x00, 0x42, 0x96, 0x28, 0x96, 0x24, 0x42, 0x20, 0x04, 0x42, 
  0x61, 0x21, 0x09, 0x00, 0x00, 0x00, 0x80, 0xF6, 0xFF, 0xFF, 0xFF, 0xFF, 
  0xFF, 0xFF, 0xF7, 0x7D, 0xBB, 0x0F, 0x10, 0x05, 0x40, 0x80, 0x08, 0x30, 
  0x03, 0xC3, 0x0C, 0xC3, 0xA5, 0x69, 0x96, 0xA6, 0x28, 0x61, 0x08, 0x00, 
  0x00, 0x00, 0x80, 0xFF, 0xFF, 0xFF, 0xFF, 0xFF, 0xFF, 0xFF, 0xAD, 0x6B, 
  0xED, 0x4D, 0x04, 0x20, 0x09, 0x29, 0x92, 0x8A, 0x68, 0x18, 0x61, 0x18, 
  0x24, 0x49, 0x92, 0x24, 0x8A, 0x0C, 0x03, 0x00, 0x00, 0x00, 0xB0, 0xFF, 
  0xFF, 0xFF, 0xFF, 0xFF, 0xFF, 0xFF, 0x57, 0xF7, 0xEB, 0x06, 0x24, 0x52, 
  0x24, 0x49, 0xA0, 0x61, 0x86, 0x61, 0x61, 0x18, 0x12, 0x45, 0x92, 0x28, 
  0x8A, 0x51, 0x04, 0x00, 0x00, 0x00, 0xF8, 0xFF, 0xFF, 0xFF, 0xFF, 0xFF, 
  0xFF, 0x7F, 0xFE, 0x5E, 0x7D, 0x47, 0x00, 0x00, 0x81, 0x10, 0x04, 0x0C, 
  0x38, 0x0C, 0x0C, 0xC3, 0x49, 0x51, 0x9A, 0xA6, 0x28, 0x14, 0x01, 0x00, 
  0x00, 0x00, 0xFE, 0xFF, 0xFF, 0xFF, 0xFF, 0xFF, 0xFF, 0xFF, 0xD5, 0xE5, 
  0xA7, 0x16, 0x61, 0x09, 0x00, 0x00, 0x59, 0x92, 0x41, 0x96, 0x92, 0x24, 
  0xA8, 0x0C, 0x04, 0x42, 0x53, 0xCA, 0x06, 0x00, 0x00, 0x00, 0xFD, 0xFF, 
  0xFF, 0xFF, 0xFF, 0xFF, 0xFF, 0xFF, 0x3F, 0x7F, 0xFD, 0x87, 0x04, 0x90, 
  0x25, 0x49, 0x11, 0x94, 0xA5, 0x90, 0x94, 0x52, 0x23, 0xB1, 0x61, 0x98, 
  0x44, 0x12, 0x00, 0x00, 0x00, 0x80, 0xFD, 0xFF, 0xFF, 0xFF, 0xFF, 0xFF, 
  0xFF, 0x7F, 0xED, 0xF5, 0xFF, 0x21, 0x09, 0x42, 0xAA, 0x24, 0x98, 0x23, 
  0x18, 0x23, 0x1B, 0x22, 0x50, 0x86, 0x8D, 0x25, 0x31, 0x9C, 0x01, 0x00, 
  0x00, 0x40, 0xFF, 0xFF, 0xFF, 0xFF, 0xFF, 0xFF, 0xFF, 0xDF, 0x77, 0x5F, 
  0xDA, 0x09, 0xA0, 0xB4, 0x15, 0x80, 0x42, 0x68, 0x42, 0xA8, 0x60, 0xA9, 
  0x96, 0x20, 0x30, 0x49, 0x8C, 0x21, 0x01, 0x00, 0x00, 0xE0, 0xFF, 0xFF, 
  0xFF, 0xFF, 0xFF, 0xFF, 0xFF, 0xDF, 0xAA, 0xED, 0x67, 0x84, 0x80, 0x6A, 
  0x1A, 0xA4, 0xA6, 0x45, 0xA6, 0x49, 0x45, 0x18, 0x04, 0x59, 0x8A, 0x30, 
  0x86, 0x61, 0x00, 0x00, 0x00, 0xD0, 0xFF, 0xFF, 0xFF, 0xFF, 0xFF, 0xFF, 
  0xFF, 0xBF, 0xFF, 0x7B, 0x1E, 0x20, 0x49, 0x95, 0x55, 0x25, 0x24, 0x14, 
  0x24, 0x14, 0x14, 0xC3, 0x69, 0x49, 0xA2, 0x86, 0x30, 0x0C, 0x00, 0x00, 
  0x00, 0xF0, 0xFF, 0xFF, 0xFF, 0xFF, 0xFF, 0xFF, 0xFF, 0xFF, 0xFF, 0xAD, 
  0x4D, 0x92, 0xA4, 0x24, 0x5C, 0x51, 0x49, 0xA2, 0x49, 0xA2, 0x8A, 0x2C, 
  0x86, 0x30, 0x2C, 0x41, 0xC3, 0xC8, 0x00, 0x00, 0x00, 0xA0, 0xFF, 0xFF, 
  0xFF, 0xFF, 0xFF, 0xFF, 0xFF, 0xAF, 0x5A, 0xFB, 0x03, 0x08, 0x60, 0x99, 
  0x8F, 0x96, 0x69, 0x8A, 0x69, 0x8A, 0x28, 0x41, 0x30, 0x86, 0x41, 0x3C, 
  0x18, 0x12, 0x00, 0x00, 0x00, 0xE0, 0xFF, 0xFF, 0xFF, 0xFF, 0xFF, 0xFF, 
  0xFF, 0x7F, 0xE7, 0x9F, 0x10, 0x00, 0x5A, 0xE5, 0x9F, 0x04, 0x20, 0x14, 
  0x20, 0x34, 0x53, 0x31, 0x49, 0x92, 0x31, 0x82, 0x99, 0x96, 0x00, 0x00, 
  0x00, 0x80, 0xFF, 0xFF, 0xFF, 0xFF, 0xFF, 0xFF, 0xFF, 0xEF, 0x76, 0x7A, 
  0x49, 0x92, 0x20, 0xDA, 0x2F, 0x61, 0x86, 0x61, 0x86, 0x49, 0x48, 0x8C, 
  0x29, 0x29, 0x8C, 0xA5, 0x24, 0x24, 0x00, 0x00, 0x00, 0x00, 0xFF, 0xFF, 
  0xFF, 0xFF, 0xFF, 0xFF, 0xFF, 0xFB, 0xBD, 0x9A, 0x02, 0x22, 0xA8, 0xF5, 
  0x3F, 0x8C, 0x31, 0x69, 0x31, 0x61, 0x29, 0x62, 0xC4, 0x48, 0x61, 0x18, 
  0x52, 0x29, 0x00, 0x00, 0x00, 0x00, 0xFF, 0xFF, 0xFF, 0xFF, 0xFF, 0xFF, 
  0xFF, 0x9F, 0xDB, 0x0F, 0x40, 0x00, 0x5A, 0xFE, 0x9F, 0x31, 0x8C, 0x14, 
  0x8C, 0x04, 0x94, 0x86, 0x16, 0x53, 0x06, 0x42, 0x24, 0x09, 0x00, 0x00, 
  0x00, 0x00, 0xF8, 0xFF, 0xFF, 0xFF, 0xFF, 0xFF, 0xFF, 0xFF, 0x7F, 0x07, 
  0x59, 0x66, 0xC2, 0xFF, 0x5F, 0x49, 0x92, 0x8A, 0x52, 0x9A, 0x86, 0x14, 
  0xA2, 0x24, 0x94, 0xA5, 0xC3, 0x10, 0x00, 0x00, 0x00, 0x00, 0xF8, 0xFF, 
  0xFF, 0xFF, 0xFF, 0xFF, 0xFF, 0x9F, 0xDA, 0x91, 0x00, 0x00, 0xF8, 0xFF, 
  0xFF, 0x22, 0x45, 0xA2, 0x45, 0xA2, 0x30, 0x51, 0x28, 0x8A, 0x51, 0x24, 
  0x18, 0x06, 0x00, 0x00, 0x00, 0x00, 0xE0, 0xFF, 0xFF, 0xFF, 0xFF, 0xFF, 
  0xFF, 0xAF, 0xBF, 0x24, 0x00, 0x00, 0xFC, 0xF3, 0xFD, 0x32, 0x51, 0x14, 
  0xC8, 0xB2, 0x92, 0x24, 0x45, 0xA2, 0x34, 0x92, 0x82, 0x06, 0x00, 0x00, 
  0x00, 0x00, 0xE0, 0xFF, 0xFF, 0xFF, 0xFF, 0xFF, 0xFF, 0xF3, 0x75, 0x00, 
  0xA6, 0x69, 0x7D, 0xF2, 0xFF, 0x85, 0x24, 0x45, 0x12, 0x04, 0x9A, 0xA6, 
  0x51, 0x8A, 0x82, 0x96, 0x3C, 0x00, 0x00, 0x00, 0x00, 0x00, 0xC0, 0xFF, 
  0xFF, 0xFF, 0xFF, 0xFF, 0xFF, 0x9F, 0x1E, 0x61, 0x20, 0x00, 0x80, 0xF8, 
  0xFF, 0x55, 0xCA, 0x68, 0x15, 0x53, 0x04, 0x42, 0x28, 0x30, 0x8C, 0x04, 
  0x41, 0x09, 0x20, 0x00, 0x00, 0x00, 0x00, 0xFF, 0xFF, 0xFC, 0xFF, 0xFF, 
  0xFF, 0xFB, 0x97, 0x04, 0x04, 0x44, 0x10, 0xFC, 0xFF, 0x4A, 0x12, 0x23, 
  0xC4, 0x48, 0x61, 0x98, 0x96, 0x8D, 0x31, 0x61, 0xA5, 0x02, 0x00, 0x00, 
  0x00, 0x00, 0x00, 0xFF, 0x3F, 0xFA, 0xFF, 0xFF, 0xFF, 0xEF, 0x07, 0x04, 
  0x90, 0x49, 0x09, 0xF8, 0xF7, 0x2D, 0x92, 0x90, 0x0A, 0x48, 0x8C, 0x25, 
  0x86, 0x61, 0x86, 0x8C, 0x18, 0x00, 0x00, 0x00, 0x00, 0x00, 0x00, 0xF8, 
  0x07, 0xFE, 0xFF, 0xFF, 0xFF, 0x7B, 0x05, 0x61, 0x09, 0x00, 0x90, 0xFA, 
  0xE7, 0x93, 0x49, 0x96, 0x69, 0x53, 0x31, 0x41, 0x28, 0x04, 0x60, 0x31, 
  0x42, 0x01, 0x00, 0x00, 0x00, 0x00, 0x00, 0xF8, 0x01, 0xFF, 0xFF, 0xFF, 
  0xFF, 0xAF, 0x83, 0x00, 0x00, 0x10, 0x00, 0xFC, 0xF7, 0xBB, 0x61, 0x0C, 
  0x40, 0x04, 0x4A, 0x38, 0x51, 0x9A, 0x29, 0x49, 0xA6, 0x01, 0x00, 0x00, 
  0x00, 0x00, 0x00, 0x60, 0x00, 0xFF, 0xFF, 0xFF, 0xFF, 0xF5, 0x20, 0x24, 
  0x92, 0x49, 0x29, 0xFD, 0xCB, 0x4F, 0x0C, 0x61, 0x96, 0xB2, 0xA2, 0x86, 
  0x45, 0x92, 0x8A, 0x22, 0x24, 0x00, 0x00, 0x00, 0x00, 0x00, 0x00, 0x00, 
  0x00, 0xFF, 0xFF, 0xFF, 0xFF, 0x6B, 0x90, 0x49, 0x24, 0x04, 0x24, 0xFC, 
  0x85, 0x5F, 0x92, 0x61, 0x28, 0x8A, 0x24, 0x81, 0x28, 0x14, 0x24, 0x93, 
  0x49, 0x00, 0x00, 0x00, 0x00, 0x00, 0x00, 0x00, 0x00, 0xFF, 0xFF, 0xFF, 
  0xFF, 0x7D, 0x04, 0x00, 0x00, 0x41, 0x00, 0xFC, 0xA3, 0xFF, 0x9A, 0x1C, 
  0xC3, 0x69, 0x49, 0x3C, 0xA2, 0x65, 0xA5, 0x48, 0x29, 0x00, 0x00, 0x00, 
  0x00, 0x00, 0x00, 0x00, 0x80, 0xFF, 0xFF, 0xFF, 0xFF, 0x2B, 0x00, 0x90, 
  0x86, 0x50, 0x61, 0xFE, 0x17, 0x9F, 0x05, 0x82, 0x14, 0x20, 0x31, 0x81, 
  0x16, 0x42, 0x42, 0xA8, 0x10, 0x00, 0x00, 0x00, 0x00, 0x00, 0x00, 0x00, 
  0x80, 0xFF, 0xFF, 0xFF, 0xFF, 0x1D, 0x90, 0x09, 0x20, 0x04, 0x04, 0xFC, 
  0x03, 0x7F, 0x62, 0xA4, 0x52, 0x86, 0x8C, 0xA5, 0xC4, 0x19, 0x18, 0x23, 
  0x26, 0x00, 0x00, 0x00, 0x00, 0x00, 0x00, 0x00, 0x80, 0xFF, 0xFF, 0xFF, 
  0xFF, 0x13, 0x22, 0x20, 0x20, 0x09, 0x02, 0xFD, 0x01, 0xFC, 0x6B, 0x19, 
  0x23, 0x31, 0x61, 0x18, 0x29, 0xA4, 0xA5, 0x50, 0x01, 0x00, 0x00, 0x00, 
  0x00, 0x00, 0x00, 0x00, 0xC0, 0xFF, 0xFF, 0xFF, 0xFF, 0x0E, 0x00, 0x04, 
  0x86, 0x60, 0xA8, 0xFC, 0x01, 0xFC, 0x16, 0x42, 0xA8, 0x8C, 0x04, 0x42, 
  0x49, 0x92, 0x82, 0x16, 0x0C, 0x00, 0x00, 0x00, 0x00, 0x00, 0x00, 0x00, 
  0x40, 0xFF, 0xFF, 0xFF, 0xFF, 0x05, 0x94, 0x65, 0x00, 0x00, 0x00, 0xFD, 
  0x01, 0xFC, 0xA5, 0x65, 0x48, 0x92, 0x96, 0xA5, 0x30, 0x0C, 0x3C, 0x83, 
  0x06, 0x00, 0x04, 0x00, 0x00, 0x00, 0x00, 0x00, 0xC0, 0xFE, 0xFF, 0xFF, 
  0xFF, 0x03, 0x01, 0x00, 0x24, 0x49, 0x92, 0xEC, 0x01, 0xF8, 0x5B, 0x24, 
  0x93, 0x24, 0x51, 0x24, 0x86, 0x61, 0x41, 0x68, 0x00, 0x00, 0x00, 0x00, 
  0x00, 0x00, 0x00, 0x00, 0x80, 0xFD, 0xFF, 0xFF, 0xFF, 0x03, 0x49, 0x92, 
  0x24, 0x49, 0x92, 0xEC, 0x01, 0xE8, 0xDF, 0xB0, 0x4D, 0x12, 0x45, 0x91, 
  0x68, 0x16, 0x28, 0x96, 0x01, 0x00, 0x00, 0x00, 0x00, 0x00, 0x00, 0x00, 
  0x00, 0xFF, 0xFF, 0xFF, 0xFF, 0x81, 0x00, 0x00, 0x00, 0x00, 0x80, 0xFC, 
  0x00, 0xFC, 0x6F, 0x06, 0x20, 0x49, 0x51, 0x96, 0x83, 0xC1, 0xC3, 0x41, 
  0x01, 0x00, 0x00, 0x00, 0x00, 0x00, 0x00, 0x00, 0x00, 0xF4, 0xFF, 0xFF, 
  0xFF, 0x11, 0x10, 0x06, 0x99, 0x90, 0x05, 0xDD, 0x01, 0xBC, 0x6F, 0x55, 
  0xCA, 0xA8, 0x8C, 0x04, 0x16, 0x68, 0x14, 0x68, 0x00, 0x00, 0x00, 0x00, 
  0x00, 0x00, 0x00, 0x00, 0x00, 0xFC, 0xFF, 0xFF, 0xFB, 0x00, 0x44, 0x90, 
  0x00, 0x09, 0x90, 0xFC, 0x00, 0x9E, 0xBF, 0x4A, 0x12, 0x23, 0x31, 0x61, 
  0x50, 0x0A, 0x52, 0x0A, 0x00, 0x10, 0x00, 0x00, 0x00, 0x00, 0x00, 0x00, 
  0x00, 0xC0, 0xFF, 0xFF, 0xFF, 0x80, 0x40, 0x20, 0x00, 0x20, 0x20, 0xDC, 
  0x00, 0x1F, 0xFF, 0x96, 0x92, 0x50, 0x86, 0x8C, 0x23, 0xC4, 0x23, 0x44, 
  0x00, 0x08, 0x00, 0x00, 0x00, 0x00, 0x00, 0x00, 0x00, 0xF0, 0xFF, 0xFF, 
  0xFB, 0x00, 0x18, 0x0A, 0xA5, 0x04, 0x86, 0xFD, 0xFD, 0x4F, 0xF8, 0x2D, 
  0x2A, 0x96, 0x20, 0x31, 0xA8, 0x15, 0xA8, 0x15, 0x00, 0x00, 0x00, 0x00, 
  0x00, 0x00, 0x00, 0x00, 0x00, 0x80, 0xFF, 0xFF, 0xFF, 0x21, 0x02, 0x82, 
  0x24, 0x65, 0x40, 0xDC, 0xFF, 0x87, 0xF8, 0x65, 0x60, 0x02, 0x59, 0x49, 
  0x48, 0x12, 0x08, 0x02, 0x00, 0x00, 0x00, 0x00, 0x00, 0x00, 0x00, 0x00, 
  0x00, 0x80, 0xFF, 0xFF, 0xEF, 0x03, 0x48, 0x20, 0x00, 0x00, 0x24, 0xF8, 
  0x3F, 0xAF, 0xE2, 0xDB, 0x0D, 0x69, 0x49, 0x24, 0x93, 0xC8, 0xD3, 0x08, 
  0x00, 0x00, 0x00, 0x00, 0x00, 0x00, 0x00, 0x00, 0x00, 0x00, 0xFB, 0xFF, 
  0xF9, 0x07, 0x04, 0x04, 0x92, 0x92, 0x89, 0xF8, 0x0F, 0x2F, 0x80, 0xBF, 
  0xA5, 0x96, 0x24, 0x93, 0x32, 0x4C, 0x30, 0x00, 0x00, 0x08, 0x00, 0x00, 
  0x00, 0x00, 0x00, 0x00, 0x00, 0x00, 0xFE, 0xF7, 0xFF, 0x0F, 0xA0, 0x41, 
  0x08, 0x00, 0x40, 0x78, 0x0F, 0x1F, 0x00, 0x5F, 0x9A, 0x20, 0x66, 0x48, 
  0x84, 0x21, 0x86, 0x05, 0x00, 0x00, 0x00, 0x00, 0x00, 0x00, 0x00, 0x00, 
  0x00, 0x00, 0xE4, 0xFF, 0xFB, 0x1F, 0x20, 0x50, 0x00, 0x08, 0x50, 0xFE, 
  0x8B, 0x03, 0x00, 0x5F, 0x29, 0x69, 0x42, 0xA8, 0x53, 0xCA, 0x92, 0x01, 
  0x80, 0x00, 0x00, 0x00, 0x00, 0x00, 0x00, 0x00, 0x00, 0x00, 0xB8, 0xFF, 
  0x1B, 0x1F, 0x01, 0x04, 0x92, 0x92, 0x89, 0xF8, 0x03, 0x1B, 0x00, 0xFE, 
  0x55, 0x09, 0x18, 0x23, 0x48, 0x12, 0x29, 0x00, 0x00, 0x00, 0x00, 0x00, 
  0x00, 0x00, 0x00, 0x00, 0x00, 0x00, 0x90, 0xEF, 0xC7, 0x3E, 0x20, 0x09, 
  0x22, 0x40, 0x02, 0xF2, 0x04, 0x23, 0x00, 0xFE, 0x5F, 0xC8, 0xA5, 0x52, 
  0x48, 0x12, 0x46, 0x00, 0x00, 0x00, 0x00, 0x00, 0x00, 0x00, 0x00, 0x00, 
  0x00, 0x00, 0xE0, 0xFB, 0x03, 0x3E, 0x84, 0x60, 0x00, 0x04, 0xC0, 0xF4, 
  0x02, 0x07, 0x00, 0xFC, 0xBB, 0x17, 0x81, 0x14, 0x53, 0xCA, 0x10, 0x00, 
  0x00, 0x00, 0x00, 0x00, 0x00, 0x00, 0x00, 0x00, 0x00, 0x00, 0x80, 0xFF, 
  0x67, 0x79, 0x00, 0x00, 0x96, 0x95, 0x59, 0xF2, 0x81, 0x17, 0x00, 0xFC, 
  0xA7, 0x99, 0x1C, 0xC3, 0x24, 0x24, 0x09, 0x00, 0x00, 0x00, 0x00, 0x00, 
  0x00, 0x00, 0x00, 0x00, 0x00, 0x00, 0x80, 0xFA, 0x07, 0xFD, 0x20, 0x49, 
  0x00, 0x00, 0x80, 0xF0, 0x02, 0x07, 0x00, 0xF8, 0x7F, 0x5B, 0x61, 0x28, 
  0x92, 0x49, 0x0A, 0x00, 0x08, 0x00, 0x00, 0x00, 0x00, 0x00, 0x00, 0x00, 
  0x00, 0x00, 0x00, 0xF6, 0x8F, 0xEC, 0x81, 0x49, 0x00, 0x24, 0xC9, 0xE0, 
  0x81, 0x07, 0x00, 0x98, 0xFF, 0xBB, 0x41, 0x29, 0x22, 0x89, 0x04, 0x10, 
  0x00, 0x00, 0x00, 0x00, 0x00, 0x00, 0x00, 0x00, 0x00, 0x00, 0x00, 0xBE, 
  0x1F, 0xE1, 0x03, 0x00, 0x9A, 0x00, 0x00, 0xF9, 0x01, 0x03, 0x00, 0x70, 
  0xFE, 0x6B, 0x3E, 0xC2, 0xA9, 0x69, 0x01, 0x00, 0x00, 0x00, 0x00, 0x00, 
  0x00, 0x00, 0x00, 0x00, 0x00, 0x00, 0x00, 0x3A, 0x9F, 0xC9, 0x07, 0x10, 
  0x02, 0x86, 0xE0, 0xE0, 0x01, 0x0B, 0x00, 0xF0, 0xFF, 0xFF, 0xDB, 0x15, 
  0x48, 0x10, 0x00, 0x00, 0x00, 0x00, 0x00, 0x00, 0x00, 0x00, 0x00, 0x00, 
  0x00, 0x00, 0x00, 0xAE, 0x3D, 0x94, 0x87, 0x49, 0x40, 0x20, 0x09, 0xE2, 
  0x81, 0x03, 0x00, 0xF8, 0xF7, 0xFF, 0xB5, 0x6A, 0x13, 0x46, 0x00, 0x00, 
  0x00, 0x00, 0x00, 0x00, 0x00, 0x00, 0x00, 0x00, 0x00, 0x00, 0x00, 0xBE, 
  0x7E, 0x62, 0x4F, 0x02, 0x92, 0x90, 0x89, 0xC0, 0x03, 0x07, 0x80, 0xFF, 
  0x0C, 0xFF, 0x7F, 0x2B, 0x8A, 0x06, 0x00, 0x00, 0x00, 0x00, 0x00, 0x00, 
  0x00, 0x00, 0x00, 0x00, 0x00, 0x00, 0x00, 0x2B, 0xF0, 0x88, 0x0E, 0x40, 
  0x08, 0x06, 0xA0, 0xE9, 0x03, 0x07, 0xC0, 0xFF, 0x01, 0xF0, 0xFF, 0xF9, 
  0xB6, 0x10, 0x00, 0x00, 0x00, 0x00, 0x00, 0x00, 0x00, 0x00, 0x00, 0x00, 
  0x00, 0x00, 0x00, 0x5D, 0xF9, 0x11, 0x1D, 0x59, 0x00, 0x00, 0x80, 0xE0, 
  0x07, 0x07, 0xF8, 0x77, 0x15, 0xF0, 0xFF, 0xDF, 0x6B, 0x07, 0x00, 0x01, 
  0x00, 0x00, 0x00, 0x00, 0x00, 0x00, 0x00, 0x00, 0x00, 0x00, 0x00, 0x1B, 
  0xE9, 0x49, 0x3D, 0x00, 0x92, 0x92, 0x89, 0x85, 0x87, 0x03, 0xFE, 0xFB, 
  0x00, 0x80, 0xFE, 0xFF, 0x96, 0x09, 0x04, 0x00, 0x00, 0x00, 0x00, 0x00, 
  0x00, 0x00, 0x00, 0x00, 0x00, 0x00, 0x00, 0x9B, 0xD8, 0x13, 0x78, 0x02, 
  0x92, 0x24, 0x94, 0xA0, 0xDF, 0xC7, 0x7F, 0xF0, 0x01, 0x80, 0x41, 0xFF, 
  0xEF, 0x30, 0x00, 0x00, 0x00, 0x00, 0x00, 0x00, 0x00, 0x00, 0x00, 0x00, 
  0x00, 0x00, 0x00, 0x4B, 0x86, 0x87, 0x66, 0x64, 0x00, 0x00, 0x80, 0x09, 
  0xFF, 0xE7, 0x1F, 0xF0, 0x00, 0x00, 0xE3, 0xFF, 0xFF, 0x8E, 0x15, 0x00, 
  0x00, 0x00, 0x00, 0x00, 0x00, 0x00, 0x00, 0x00, 0x00, 0x00, 0x00, 0x1E, 
  0xA2, 0x0F, 0xE0, 0x02, 0x06, 0x99, 0x89, 0x01, 0xFF, 0xFF, 0x27, 0x70, 
  0x02, 0x00, 0xE3, 0xF7, 0xFF, 0xFF, 0x03, 0x00, 0x00, 0x00, 0x00, 0x00, 
  0x00, 0x00, 0x00, 0x00, 0x00, 0x00, 0x00, 0x4A, 0x28, 0x9E, 0x99, 0x40, 
  0x90, 0x00, 0x10, 0x93, 0x7F, 0xFF, 0x07, 0x70, 0x02, 0x00, 0xFE, 0x81, 
  0xFF, 0xFF, 0x03, 0x00, 0x00, 0x00, 0x00, 0x00, 0x00, 0x00, 0x00, 0x00, 
  0x00, 0x00, 0x00, 0xA6, 0x66, 0x1C, 0xE4, 0x51, 0x20, 0x00, 0x80, 0x09, 
  0x1F, 0x7E, 0x04, 0xF0, 0x00, 0x00, 0x3F, 0x00, 0xFE, 0xFF, 0x01, 0x00, 
  0x00, 0x00, 0x00, 0x00, 0x00, 0x00, 0x00, 0x00, 0x00, 0x00, 0x00, 0x04, 
  0x00, 0x3A, 0x00, 0x03, 0x0A, 0xA5, 0x25, 0x02, 0xBE, 0xBF, 0x05, 0xF0, 
  0x01, 0x00, 0x0F, 0x00, 0x78, 0xFE, 0x01, 0x00, 0x00, 0x00, 0x00, 0x00, 
  0x00, 0x00, 0x00, 0x00, 0x00, 0x00, 0x00, 0x08, 0xC8, 0x34, 0xA1, 0x07, 
  0x82, 0x24, 0xA4, 0x03, 0x7C, 0x3F, 0x01, 0x70, 0x00, 0xC0, 0x2F, 0x00, 
  0x18, 0xF0, 0x00, 0x00, 0x00, 0x00, 0x00, 0x00, 0x00, 0x00, 0x00, 0x00, 
  0x00, 0x00, 0x00, 0x98, 0x12, 0xE9, 0x04, 0x54, 0x20, 0x00, 0x00, 0x95, 
  0xFC, 0x5F, 0x04, 0x70, 0x00, 0xE0, 0x0F, 0x00, 0x0C, 0xE0, 0x00, 0x00, 
  0x00, 0x00, 0x00, 0x00, 0x00, 0x00, 0x00, 0x00, 0x00, 0x00, 0x00, 0x00, 
  0x49, 0xEA, 0x90, 0x08, 0x92, 0x20, 0x05, 0x89, 0xF9, 0xB9, 0x00, 0xE0, 
  0x00, 0xF0, 0x1C, 0x00, 0x0C, 0x60, 0x00, 0x00, 0x00, 0x00, 0x00, 0x00, 
  0x00, 0x00, 0x00, 0x00, 0x00, 0x00, 0x00, 0xA0, 0x10, 0x80, 0x05, 0x52, 
  0x08, 0x82, 0x40, 0x16, 0xF0, 0x39, 0x05, 0xF0, 0x00, 0x7C, 0x0C, 0x00, 
  0x06, 0x30, 0x00, 0x00, 0x00, 0x00, 0x00, 0x00, 0x00, 0x00, 0x00, 0x00, 
  0x00, 0x00, 0x00, 0x20, 0x00, 0x10, 0x03, 0xA6, 0x00, 0x0A, 0x10, 0x06, 
  0xF8, 0xB9, 0x00, 0xF0, 0x00, 0x1F, 0x0C, 0x00, 0x0F, 0x18, 0x00, 0x00, 
  0x00, 0x00, 0x00, 0x00, 0x00, 0x00, 0x00, 0x00, 0x00, 0x00, 0x00, 0x80, 
  0x49, 0x46, 0x94, 0x00, 0x92, 0x20, 0x45, 0x96, 0xE1, 0x7B, 0x03, 0xE0, 
  0x00, 0x0F, 0x18, 0x00, 0x0F, 0x08, 0x00, 0x00, 0x00, 0x00, 0x00, 0x00, 
  0x00, 0x00, 0x00, 0x00, 0x00, 0x00, 0x00, 0x00, 0x40, 0x42, 0x25, 0xC0, 
  0x22, 0x90, 0x04, 0x0C, 0xD1, 0xFF, 0x00, 0xE0, 0xE0, 0x07, 0x0C, 0xC0, 
  0x0F, 0x0E, 0x00, 0x00, 0x00, 0x00, 0x00, 0x00, 0x00, 0x00, 0x00, 0x00, 
  0x00, 0x00, 0x00, 0x00, 0x06, 0x00, 0x08, 0x06, 0x00, 0x06, 0x60, 0x16, 
  0xC8, 0xFF, 0x02, 0xE0, 0xE0, 0x03, 0x18, 0xE0, 0x0F, 0x06, 0x00, 0x00, 
  0x00, 0x00, 0x00, 0x00, 0x00, 0x00, 0x00, 0x00, 0x00, 0x00, 0x00, 0x00, 
  0x61, 0x66, 0x90, 0x60, 0x96, 0x00, 0x09, 0x26, 0x80, 0xFF, 0x02, 0xE0, 
  0xFC, 0x00, 0x18, 0xF0, 0x0E, 0x07, 0x00, 0x00, 0x00, 0x00, 0x00, 0x00, 
  0x00, 0x00, 0x00, 0x00, 0x00, 0x00, 0x00, 0x00, 0x04, 0x00, 0x04, 0x02, 
  0x00, 0x92, 0x40, 0xB8, 0x11, 0xFF, 0x01, 0xE0, 0x7E, 0x01, 0x18, 0x38, 
  0x8C, 0x0F, 0x00, 0x00, 0x00, 0x00, 0x00, 0x00, 0x00, 0x00, 0x00, 0x00, 
  0x00, 0x00, 0x00, 0x00, 0x48, 0x00, 0x49, 0x00, 0x92, 0x24, 0x00, 0x1A, 
  0x08, 0xFE, 0x03, 0xC0, 0x7F, 0x00, 0x38, 0x1C, 0xCC, 0x1F, 0x00, 0x00, 
  0x00, 0x00, 0x00, 0x00, 0x00, 0x00, 0x00, 0x00, 0x00, 0x00, 0x00, 0x00, 
  0x08, 0x59, 0x00, 0x59, 0x00, 0x00, 0x65, 0x78, 0x90, 0xFC, 0x07, 0xE0, 
  0x2F, 0x00, 0x18, 0x0E, 0xEC, 0x1E, 0x00, 0x00, 0x00, 0x00, 0x00, 0x00, 
  0x00, 0x00, 0x00, 0x00, 0x00, 0x00, 0x00, 0x00, 0x80, 0x40, 0x90, 0x40, 
  0x08, 0x86, 0x04, 0x69, 0x00, 0xF8, 0x0F, 0xF8, 0x0F, 0x00, 0xF8, 0x07, 
  0x7C, 0x1C, 0x00, 0x00, 0x00, 0x00, 0x00, 0x00, 0x00, 0x00, 0x00, 0x00, 
  0x00, 0x00, 0x00, 0x00, 0x30, 0x02, 0x09, 0x02, 0x92, 0x20, 0x20, 0x90, 
  0x49, 0xF1, 0xFF, 0xFF, 0x67, 0x00, 0xF8, 0x03, 0x7C, 0x1C, 0x00, 0x00, 
  0x00, 0x00, 0x00, 0x00, 0x00, 0x00, 0x00, 0x00, 0x00, 0x00, 0x00, 0x00, 
  0x40, 0x49, 0x20, 0x49, 0x40, 0x20, 0x09, 0x90, 0x40, 0xD0, 0xFF, 0xDF, 
  0x07, 0x00, 0xF8, 0x03, 0x38, 0x3C, 0x00, 0x00, 0x00, 0x00, 0x00, 0x00, 
  0x00, 0x00, 0x00, 0x00, 0x00, 0x00, 0x00, 0x00, 0x40, 0x10, 0x04, 0x10, 
  0x02, 0x86, 0x90, 0xE6, 0x17, 0x00, 0xFF, 0x8B, 0x27, 0x00, 0xF8, 0x00, 
  0x18, 0x1E, 0x02, 0x00, 0x00, 0x00, 0x00, 0x00, 0x00, 0x00, 0x00, 0x00, 
  0x00, 0x00, 0x00, 0x00, 0x00, 0x01, 0x65, 0x00, 0x9A, 0x00, 0x00, 0x60, 
  0x40, 0x80, 0xFE, 0x81, 0x17, 0x00, 0xF8, 0x03, 0x18, 0x9C, 0x00, 0x00, 
  0x00, 0x00, 0x00, 0x00, 0x00, 0x00, 0x00, 0x00, 0x00, 0x00, 0x00, 0x00, 
  0x80, 0x4C, 0x00, 0x49, 0x00, 0x24, 0x49, 0x44, 0x07, 0x19, 0xFC, 0x37, 
  0x17, 0x00, 0xF8, 0x00, 0x18, 0x1C, 0x00, 0x00, 0x00, 0x00, 0x00, 0x00, 
  0x00, 0x00, 0x00, 0x00, 0x00, 0x00, 0x00, 0x00, 0x00, 0x80, 0x24, 0x49, 
  0x00, 0x00, 0x00, 0xC0, 0x06, 0x44, 0xF0, 0xFF, 0xAF, 0x00, 0xFC, 0x02, 
  0x58, 0x1E, 0x01, 0x00, 0x00, 0x00, 0x00, 0x00, 0x00, 0x00, 0x00, 0x00, 
  0x00, 0x00, 0x00, 0x00, 0x00, 0x16, 0x00, 0x00, 0x96, 0x65, 0xA6, 0x89, 
  0x5B, 0x10, 0x85, 0xFF, 0x1F, 0x00, 0xFC, 0x05, 0x18, 0x1F, 0x08, 0x00, 
  0x00, 0x00, 0x00, 0x00, 0x00, 0x00, 0x00, 0x00, 0x00, 0x00, 0x00, 0x00, 
  0x00, 0x08, 0x86, 0x60, 0x00, 0x04, 0x20, 0xA0, 0x19, 0x01, 0x92, 0xFF, 
  0xFF, 0xC1, 0xCF, 0x03, 0xF8, 0x47, 0x00, 0x00, 0x00, 0x00, 0x00, 0x00, 
  0x00, 0x00, 0x00, 0x00, 0x00, 0x00, 0x00, 0x00, 0x00, 0xB0, 0x20, 0x09, 
  0x22, 0x20, 0x04, 0x04, 0x6E, 0x84, 0x00, 0xFC, 0xFF, 0xDD, 0x47, 0x8F, 
  0xEC, 0x0F, 0x02, 0x00, 0x00, 0x00, 0x00, 0x00, 0x00, 0x00, 0x00, 0x00, 
  0x00, 0x00, 0x00, 0x00, 0x00, 0x20, 0x00, 0x04, 0x92, 0x09, 0x90, 0x05, 
  0x6A, 0x18, 0x00, 0xF0, 0xFF, 0xFF, 0x53, 0xFE, 0xFF, 0x13, 0x04, 0x00, 
  0x00, 0x00, 0x00, 0x00, 0x00, 0x00, 0x00, 0x00, 0x00, 0x40, 0x00, 0x00, 
  0x00, 0x80, 0x45, 0x50, 0x00, 0x90, 0x09, 0x50, 0xB9, 0x01, 0x06, 0x04, 
  0xFE, 0xFF, 0xFB, 0xFF, 0xFF, 0x00, 0x01, 0x00, 0x00, 0x00, 0x00, 0x00, 
  0x00, 0x00, 0x00, 0x00, 0x00, 0x40, 0x00, 0x00, 0x00, 0x80, 0x51, 0x41, 
  0x08, 0x00, 0x00, 0x40, 0x58, 0x02, 0x84, 0x02, 0xF9, 0xFF, 0xFF, 0xFF, 
  0x7F, 0x0A, 0x00, 0x00, 0x00, 0x00, 0x00, 0x00, 0x00, 0x00, 0x00, 0x00, 
  0x00, 0x40, 0x00, 0x00, 0x00, 0x00, 0x0C, 0x04, 0x92, 0x49, 0x92, 0x05, 
  0xD2, 0x1D, 0x10, 0x24, 0x80, 0xFF, 0xFF, 0xFF, 0x27, 0x80, 0x00, 0x00, 
  0x00, 0x00, 0x00, 0x00, 0x00, 0x00, 0x00, 0x00, 0x00, 0x80, 0x00, 0x00, 
  0x00, 0x00, 0x12, 0x04, 0x20, 0x24, 0x24, 0x04, 0xD2, 0x96, 0x40, 0x04, 
  0x08, 0xA4, 0xFF, 0x2F, 0x49, 0x02, 0x00, 0x00, 0x00, 0x00, 0x00, 0x00, 
  0x00, 0x00, 0x00, 0x00, 0x00, 0x00, 0x01, 0x00, 0x00, 0x00, 0x54, 0x41, 
  0x84, 0x00, 0x00, 0x41, 0x60, 0x1B, 0x04, 0x01, 0x00, 0x01, 0x00, 0x40, 
  0x00, 0x00, 0x05, 0x00, 0x00, 0x00, 0x00, 0x00, 0x00, 0x00, 0x00, 0x00, 
  0x00, 0x80, 0x00, 0x00, 0x00, 0x00, 0x00, 0x50, 0x09, 0x61, 0x86, 0x50, 
  0xA8, 0x35, 0x11, 0x10, 0x00, 0x00, 0x18, 0x41, 0x02, 0x00, 0x00, 0x00, 
  0x00, 0x00, 0x00, 0x00, 0x00, 0x00, 0x00, 0x00, 0x00, 0x00, 0x01, 0x00, 
  0x00, 0x00, 0x60, 0x05, 0x20, 0x04, 0x20, 0x04, 0x02, 0xDD, 0x45, 0x04, 
  0x00, 0x00, 0x01, 0x00, 0x00, 0x10, 0x00, 0x00, 0x00, 0x00, 0x00, 0x00, 
  0x00, 0x00, 0x00, 0x00, 0x00, 0x00, 0x01, 0x00, 0x00, 0x00, 0xA0, 0x00, 
  0x90, 0x04, 0x20, 0x09, 0x04, 0x9B, 0x23, 0x22, 0x02, 0x00, 0x00, 0x20, 
  0x00, 0xA0, 0x01, 0x00, 0x00, 0x00, 0x00, 0x00, 0x00, 0x00, 0x00, 0x00, 
  0x00, 0x00, 0x06, 0x00, 0x00, 0x00, 0x00, 0x6A, 0x09, 0x61, 0x86, 0x60, 
  0x61, 0xF4, 0x0E, 0x08, 0x10, 0x00, 0x00, 0x00, 0x48, 0x08, 0x00, 0x00, 
  0x00, 0x00, 0x00, 0x00, 0x00, 0x00, 0x00, 0x00, 0x00, 0x00, 0x04, 0x00, 
  0x00, 0x00, 0x00, 0x05, 0x00, 0x00, 0x00, 0x00, 0x00, 0x68, 0x6A, 0x90, 
  0x41, 0x92, 0x00, 0x40, 0x40, 0x20, 0x00, 0x00, 0x00, 0x00, 0x00, 0x00, 
  0x00, 0x00, 0x00, 0x00, 0x00, 0x00, 0x02, 0x00, 0x00, 0x00, 0x00, 0xA4, 
  0x94, 0x24, 0x24, 0x49, 0x24, 0x81, 0xBB, 0x02, 0x08, 0x00, 0x84, 0x11, 
  0x02, 0x02, 0x00, 0x00, 0x00, 0x00, 0x00, 0x00, 0x00, 0x00, 0x00, 0x00, 
  0x00, 0x00, 0x04, 0x00, 0x00, 0x00, 0x00, 0x88, 0x00, 0x20, 0x49, 0x49, 
  0x49, 0x52, 0xAF, 0x03, 0x02, 0x24, 0x24, 0x00, 0x09, 0x00, 0x00, 0x00, 
  0x00, 0x00, 0x00, 0x00, 0x00, 0x00, 0x00, 0x00, 0x00, 0x00, 0x18, 0x00, 
  0x00, 0x00, 0x00, 0x20, 0xA6, 0x09, 0x00, 0x00, 0x00, 0x40, 0xEA, 0x5E, 
  0x60, 0x01, 0x80, 0x42, 0x40, 0x00, 0x00, 0x00, 0x00, 0x00, 0x00, 0x00, 
  0x00, 0x00, 0x00, 0x00, 0x00, 0x00, 0x18, 0x00, 0x00, 0x00, 0x00, 0x50, 
  0x24, 0x60, 0x90, 0x10, 0x60, 0x08, 0x38, 0xEA, 0x05, 0x94, 0x29, 0xA6, 
  0x20, 0x00, 0x00, 0x00, 0x00, 0x00, 0x00, 0x00, 0x00, 0x00, 0x00, 0x00, 
  0x00, 0x00, 0x00, 0x00, 0x00, 0x00, 0x00, 0x40, 0x01, 0x04, 0x09, 0x49, 
  0x09, 0x22, 0xE2, 0x3B, 0x2D, 0x00, 0x00, 0x00, 0x10, 0x00, 0x00, 0x00, 
  0x00, 0x00, 0x00, 0x00, 0x00, 0x00, 0x00, 0x00, 0x00, 0x00, 0x10, 0x00, 
  0x00, 0x00, 0x00, 0x00, 0x82, 0x05, 0x20, 0x02, 0x04, 0x09, 0xA0, 0xED, 
  0xB6, 0x09, 0x00, 0x00, 0x2B, 0x00, 0x00, 0x00, 0x00, 0x00, 0x00, 0x00, 
  0x00, 0x00, 0x00, 0x00, 0x00, 0x00, 0x60, 0x00, 0x00, 0x00, 0x00, 0x00, 
  0x2A, 0x50, 0x04, 0x40, 0x50, 0x90, 0x06, 0xAA, 0xD6, 0xF6, 0x55, 0x77, 
  0x19, 0x00, 0x00, 0x00, 0x00, 0x00, 0x00, 0x00, 0x00, 0x00, 0x00, 0x00, 
  0x00, 0x00, 0x60, 0x00, 0x00, 0x00, 0x00, 0x00, 0x18, 0x41, 0x65, 0x59, 
  0x41, 0x00, 0x40, 0xFA, 0x3F, 0xAF, 0xDB, 0xCC, 0x1F, 0x00, 0x00, 0x00, 
  0x00, 0x00, 0x00, 0x00, 0x00, 0x00, 0x00, 0x00, 0x00, 0x00, 0x40, 0x00, 
  0x00, 0x00, 0x00, 0x00, 0x60, 0x04, 0x00, 0x00, 0x04, 0x49, 0x24, 0x00, 
  0xE9, 0xB9, 0xB6, 0xBB, 0x04, 0x00, 0x00, 0x00, 0x00, 0x00, 0x00, 0x00, 
  0x00, 0x00, 0x00, 0x00, 0x00, 0x00, 0x40, 0x00, 0x00, 0x00, 0x00, 0x00, 
  0x40, 0x24, 0x00, 0x00, 0x20, 0x24, 0x00, 0x92, 0xAA, 0x75, 0xAD, 0xAD, 
  0x0D, 0x00, 0x00, 0x00, 0x00, 0x00, 0x00, 0x00, 0x00, 0x00, 0x00, 0x00, 
  0x00, 0x00, 0x80, 0x01, 0x00, 0x00, 0x00, 0x00, 0x00, 0x83, 0x69, 0x66, 
  0x82, 0x00, 0x59, 0x08, 0xC0, 0xD6, 0xE6, 0xB3, 0x02, 0x00, 0x00, 0x00, 
  0x00, 0x00, 0x00, 0x00, 0x00, 0x00, 0x00, 0x00, 0x00, 0x00, 0x00, 0x01, 
  0x00, 0x00, 0x00, 0x00, 0x80, 0x14, 0x00, 0x00, 0x0A, 0x61, 0x40, 0x00, 
  0x08, 0x2A, 0x26, 0x08, 0x00, 0x00, 0x00, 0x00, 0x00, 0x00, 0x00, 0x00, 
  0x00, 0x00, 0x00, 0x00, 0x00, 0x00, 0x80, 0x03, 0x00, 0x00, 0x00, 0x00, 
  0x00, 0x12, 0x44, 0x42, 0x20, 0x04, 0x02, 0x92, 0x21, 0x00, 0x00, 0x80, 
  0x01, 0x00, 0x00, 0x00, 0x00, 0x00, 0x00, 0x00, 0x00, 0x00, 0x00, 0x00, 
  0x00, 0x00, 0x00, 0x01, 0x00, 0x00, 0x00, 0x00, 0x00, 0xD8, 0x61, 0x92, 
  0x90, 0x04, 0x0A, 0x22, 0x94, 0x24, 0x84, 0x08, 0x00, 0x00, 0x00, 0x00, 
  0x00, 0x00, 0x00, 0x00, 0x00, 0x00, 0x00, 0x00, 0x00, 0x00, 0x00, 0x06, 
  0x00, 0x00, 0x00, 0x00, 0x00, 0x00, 0x09, 0x00, 0x06, 0x61, 0x40, 0x00, 
  0x00, 0x01, 0x00, 0x50, 0x00, 0x00, 0x00, 0x00, 0x00, 0x00, 0x00, 0x00, 
  0x00, 0x00, 0x00, 0x00, 0x00, 0x00, 0x00, 0x0A, 0x00, 0x00, 0x00, 0x00, 
  0x00, 0x60, 0x00, 0x08, 0x00, 0x00, 0x59, 0x96, 0x09, 0x00, 0x10, 0x18, 
  0x00, 0x00, 0x00, 0x00, 0x00, 0x00, 0x00, 0x00, 0x00, 0x00, 0x00, 0x00, 
  0x00, 0x00, 0x00, 0x16, 0x00, 0x00, 0x00, 0x00, 0x00, 0x00, 0x56, 0x92, 
  0x92, 0x24, 0x00, 0x00, 0x90, 0x84, 0x02, 0x42, 0x00, 0x00, 0x00, 0x00, 
  0x00, 0x00, 0x00, 0x00, 0x00, 0x00, 0x00, 0x00, 0x00, 0x00, 0x00, 0x24, 
  0x00, 0x00, 0x00, 0x00, 0x00, 0x00, 0x86, 0x40, 0x92, 0x49, 0x00, 0x00, 
  0x00, 0x40, 0x40, 0x0C, 0x00, 0x00, 0x00, 0x00, 0x00, 0x00, 0x00, 0x00, 
  0x00, 0x00, 0x00, 0x00, 0x00, 0x00, 0x00, 0x58, 0x00, 0x00, 0x00, 0x00, 
  0x00, 0x00, 0x38, 0x15, 0x00, 0x00, 0x65, 0xA6, 0x99, 0x0A, 0x08, 0x11, 
  0x00, 0x00, 0x00, 0x00, 0x00, 0x00, 0x00, 0x00, 0x00, 0x00, 0x00, 0x00, 
  0x00, 0x00, 0x00, 0x10, 0x00, 0x00, 0x00, 0x00, 0x00, 0x00, 0x40, 0x06, 
  0x18, 0x10, 0x04, 0x20, 0x04, 0x08, 0x50, 0x0A, 0x00, 0x00, 0x00, 0x00, 
  0x00, 0x00, 0x00, 0x00, 0x00, 0x00, 0x00, 0x00, 0x00, 0x00, 0x00, 0x60, 
  0x00, 0x00, 0x00, 0x00, 0x00, 0x00, 0x20, 0x50, 0x82, 0x49, 0x20, 0x04, 
  0x20, 0x20, 0x82, 0x02, 0x00, 0x00, 0x00, 0x00, 0x00, 0x00, 0x00, 0x00, 
  0x00, 0x00, 0x00, 0x00, 0x00, 0x00, 0x00, 0xA0, 0x00, 0x00, 0x00, 0x00, 
  0x00, 0x00, 0x80, 0x13, 0x21, 0x02, 0x09, 0x90, 0x04, 0x40, 0x48, 0x01, 
  0x00, 0x00, 0x00, 0x00, 0x00, 0x00, 0x00, 0x00, 0x00, 0x00, 0x00, 0x00, 
  0x00, 0x00, 0x00, 0x40, 0x01, 0x00, 0x00, 0x00, 0x00, 0x00, 0x00, 0x68, 
  0x04, 0x40, 0x90, 0x09, 0x21, 0x01, 0x92, 0x00, 0x00, 0x00, 0x00, 0x00, 
  0x00, 0x00, 0x00, 0x00, 0x00, 0x00, 0x00, 0x00, 0x00, 0x00, 0x00, 0x80, 
  0x01, 0x00, 0x00, 0x00, 0x00, 0x00, 0x00, 0x48, 0x46, 0x99, 0x00, 0x00, 
  0x80, 0x24, 0x85, 0x00, 0x00, 0x00, 0x00, 0x00, 0x00, 0x00, 0x00, 0x00, 
  0x00, 0x00, 0x00, 0x00, 0x00, 0x00, 0x00, 0x00, 0x06, 0x00, 0x00, 0x00, 
  0x00, 0x00, 0x00, 0x10, 0x30, 0x00, 0x49, 0x92, 0x04, 0x40, 0x31, 0x00, 
  0x00, 0x00, 0x00, 0x00, 0x00, 0x00, 0x00, 0x00, 0x00, 0x00, 0x00, 0x00, 
  0x00, 0x00, 0x00, 0x00, 0x0B, 0x00, 0x00, 0x00, 0x00, 0x00, 0x00, 0x80, 
  0x23, 0x04, 0x04, 0x10, 0x20, 0x28, 0x28, 0x00, 0x00, 0x00, 0x00, 0x00, 
  0x00, 0x00, 0x00, 0x00, 0x00, 0x00, 0x00, 0x00, 0x00, 0x00, 0x00, 0x00, 
  0x0C, 0x00, 0x00, 0x00, 0x00, 0x00, 0x00, 0x00, 0xA8, 0x55, 0x60, 0x06, 
  0x82, 0xA2, 0x02, 0x00, 0x00, 0x00, 0x00, 0x00, 0x00, 0x00, 0x00, 0x00, 
  0x00, 0x00, 0x00, 0x00, 0x00, 0x00, 0x00, 0x00, 0x16, 0x00, 0x00, 0x00, 
  0x00, 0x00, 0x00, 0x00, 0x46, 0x12, 0x05, 0x80, 0x15, 0x15, 0x04, 0x00, 
  0x00, 0x00, 0x00, 0x00, 0x00, 0x00, 0x00, 0x00, 0x00, 0x00, 0x00, 0x00, 
  0x00, 0x00, 0x00, 0x00, 0x68, 0x00, 0x00, 0x00, 0x00, 0x00, 0x00, 0x00, 
  0x10, 0xC8, 0xA4, 0x25, 0xC4, 0xC4, 0x03, 0x00, 0x00, 0x00, 0x00, 0x00, 
  0x00, 0x00, 0x00, 0x00, 0x00, 0x00, 0x00, 0x00, 0x00, 0x00, 0x00, 0x00, 
  0x50, 0x00, 0x00, 0x00, 0x00, 0x00, 0x00, 0x00, 0x80, 0x29, 0x4A, 0x52, 
  0x0A, 0x26, 0x00, 0x00, 0x00, 0x00, 0x00, 0x00, 0x00, 0x00, 0x00, 0x00, 
  0x00, 0x00, 0x00, 0x00, 0x00, 0x00, 0x00, 0x00, 0xA0, 0x00, 0x00, 0x00, 
  0x00, 0x00, 0x00, 0x00, 0x00, 0x4A, 0x28, 0x24, 0x68, 0x40, 0x00, 0x00, 
  0x00, 0x00, 0x00, 0x00, 0x00, 0x00, 0x00, 0x00, 0x00, 0x00, 0x00, 0x00, 
  0x00, 0x00, 0x00, 0x00, 0x60, 0x02, 0x00, 0x00, 0x00, 0x00, 0x00, 0x00, 
  0x00, 0x50, 0xC3, 0xC3, 0x41, 0x0B, 0x00, 0x00, 0x00, 0x00, 0x00, 0x00, 
  0x00, 0x00, 0x00, 0x00, 0x00, 0x00, 0x00, 0x00, 0x00, 0x00, 0x00, 0x00, 
  0x80, 0x05, 0x00, 0x00, 0x00, 0x00, 0x00, 0x00, 0x00, 0x80, 0x14, 0x18, 
  0x96, 0x00, 0x00, 0x00, 0x00, 0x00, 0x00, 0x00, 0x00, 0x00, 0x00, 0x00, 
  0x00, 0x00, 0x00, 0x00, 0x00, 0x00, 0x00, 0x00, 0x00, 0x05, 0x00, 0x00, 
  0x00, 0x00, 0x00, 0x00, 0x00, 0x00, 0x52, 0x68, 0x01, 0x00, 0x00, 0x00, 
  0x00, 0x00, 0x00, 0x00, 0x00, 0x00, 0x00, 0x00, 0x00, 0x00, 0x00, 0x00, 
  0x00, 0x00, 0x00, 0x00, 0x00, 0x1A, 0x00, 0x00, 0x00, 0x00, 0x00, 0x00, 
  0x00, 0x08, 0x00, 0x03, 0x02, 0x00, 0x00, 0x00, 0x00, 0x00, 0x00, 0x00, 
  0x00, 0x00, 0x00, 0x00, 0x00, 0x00, 0x00, 0x00, 0x00, 0x00, 0x00, 0x00, 
  0x00, 0x14, 0x00, 0x00, 0x00, 0x00, 0x00, 0x00, 0xE8, 0x0F, 0x00, 0x00, 
  0x00, 0x00, 0x00, 0x00, 0x00, 0x00, 0x00, 0x00, 0x00, 0x00, 0x00, 0x00, 
  0x00, 0x00, 0x00, 0x00, 0x00, 0x00, 0x00, 0x00, 0x00, 0x6A, 0x00, 0x00, 
  0x00, 0x00, 0x00, 0x00, 0xFE, 0x7F, 0x00, 0x00, 0x00, 0x00, 0x00, 0x00, 
  0x00, 0x00, 0x00, 0x00, 0x00, 0x00, 0x00, 0x00, 0x00, 0x00, 0x00, 0x00, 
  0x00, 0x00, 0x00, 0x00, 0x00, 0xA8, 0x01, 0x00, 0x00, 0x00, 0x00, 0x80, 
  0xFF, 0xFF, 0x00, 0x00, 0x00, 0x00, 0x00, 0x00, 0x00, 0x00, 0x00, 0x00, 
  0x00, 0x00, 0x00, 0x00, 0x00, 0x00, 0x00, 0x00, 0x00, 0x00, 0x00, 0x00, 
  0x00, 0x50, 0x02, 0x00, 0x00, 0x00, 0x00, 0xC0, 0xFF, 0xFF, 0x03, 0x00, 
  0x00, 0x00, 0x00, 0x00, 0x00, 0x00, 0x00, 0x00, 0x00, 0x00, 0x00, 0x00, 
  0x00, 0x00, 0x00, 0x00, 0x00, 0x00, 0x00, 0x00, 0x00, 0xA0, 0x05, 0x00, 
  0x00, 0x00, 0x00, 0xC0, 0xFF, 0xFF, 0x07, 0x00, 0x00, 0x00, 0x00, 0x00, 
  0x00, 0x00, 0x00, 0x00, 0x00, 0x00, 0x00, 0x00, 0x00, 0x00, 0x00, 0x00, 
  0x00, 0x00, 0x00, 0x00, 0x00, 0x40, 0x1A, 0x00, 0x00, 0x00, 0x00, 0xC0, 
  0xFF, 0xFF, 0x1F, 0x00, 0x00, 0x00, 0x00, 0x00, 0x00, 0x00, 0x00, 0x00, 
  0x00, 0x00, 0x00, 0x00, 0x00, 0x00, 0x00, 0x00, 0x00, 0x00, 0x00, 0x00, 
  0x00, 0x00, 0x15, 0x00, 0x00, 0x00, 0x00, 0xE0, 0xFF, 0xFF, 0x7F, 0x00, 
  0x00, 0x00, 0x00, 0x00, 0x00, 0x00, 0x00, 0x00, 0x00, 0x00, 0x00, 0x00, 
  0x00, 0x00, 0x00, 0x00, 0x00, 0x00, 0x00, 0x00, 0x00, 0x00, 0x6A, 0x00, 
  0x00, 0x00, 0x00, 0xF0, 0xFF, 0xFF, 0xFF, 0x00, 0x00, 0x00, 0x00, 0x00, 
  0x00, 0x00, 0x00, 0x00, 0x00, 0x00, 0x00, 0x00, 0x00, 0x00, 0x00, 0x00, 
  0x00, 0x00, 0x00, 0x00, 0x00, 0x00, 0x54, 0x01, 0x00, 0x00, 0x00, 0xF0, 
  0xFF, 0xFF, 0xFF, 0x00, 0x00, 0x00, 0x00, 0x00, 0x00, 0x00, 0x00, 0x00, 
  0x00, 0x00, 0x00, 0x00, 0x00, 0x00, 0x00, 0x00, 0x00, 0x00, 0x00, 0x00, 
  0x00, 0x00, 0xA0, 0x05, 0x00, 0x00, 0x00, 0xF8, 0xFF, 0xFF, 0xFF, 0x01, 
  0x00, 0x00, 0x00, 0x00, 0x00, 0x00, 0x00, 0x00, 0x00, 0x00, 0x00, 0x00, 
  0x00, 0x00, 0x00, 0x00, 0x00, 0x00, 0x00, 0x00, 0x00, 0x00, 0x40, 0x00, 
  0x00, 0x00, 0x00, 0xF8, 0xFF, 0xFF, 0xFF, 0x01, 0x00, 0x00, 0x00, 0x00, 
  0x00, 0x00, 0x00, 0x00, 0x00, 0x00, 0x00, 0x00, 0x00, 0x00, 0x00, 0x00, 
  0x00, 0x00, 0x00, 0x00, 0x00, 0x00, 0xA0, 0x26, 0x00, 0x00, 0x00, 0xF8, 
  0xFF, 0xFF, 0xFF, 0x01, 0x00, 0x00, 0x00, 0x00, 0x00, 0x00, 0x00, 0x00, 
  0x00, 0x00, 0x00, 0x00, 0x00, 0x00, 0x00, 0x00, 0x00, 0x00, 0x00, 0x00, 
  0x00, 0x00, 0x00, 0x1B, 0x00, 0x00, 0x00, 0xFC, 0xFF, 0xFF, 0xFF, 0x01, 
  0x00, 0x00, 0x00, 0x00, 0x00, 0x00, 0x00, 0x00, 0x00, 0x00, 0x00, 0x00, 
  0x00, 0x00, 0x00, 0x00, 0x00, 0x00, 0x00, 0x00, 0x00, 0x00, 0x00, 0x64, 
  0x00, 0x00, 0x00, 0xFC, 0xFF, 0xFF, 0xFF, 0x01, 0x00, 0x00, 0x00, 0x00, 
  0x00, 0x00, 0x00, 0x00, 0x00, 0x00, 0x00, 0x00, 0x00, 0x00, 0x00, 0x00, 
  0x00, 0x00, 0x00, 0x00, 0x00, 0x00, 0x00, 0x60, 0x02, 0x00, 0x00, 0xFC, 
  0xFF, 0xFF, 0xFF, 0x01, 0x00, 0x00, 0x00, 0x00, 0x00, 0x00, 0x00, 0x00, 
  0x00, 0x00, 0x00, 0x00, 0x00, 0x00, 0x00, 0x00, 0x00, 0x00, 0x00, 0x00, 
  0x00, 0x00, 0x00, 0x90, 0x05, 0x00, 0x00, 0xFC, 0xFF, 0xFF, 0xFF, 0x01, 
  0x00, 0x00, 0x00, 0x00, 0x00, 0x00, 0x00, 0x00, 0x00, 0x00, 0x00, 0x00, 
  0x00, 0x00, 0x00, 0x00, 0x00, 0x00, 0x00, 0x00, 0x00, 0x00, 0x00, 0x00, 
  0x04, 0x00, 0x00, 0xFE, 0xFF, 0xFF, 0xFF, 0x00, 0x00, 0x00, 0x00, 0x00, 
  0x00, 0x00, 0x00, 0x00, 0x00, 0x00, 0x00, 0x00, 0x00, 0x00, 0x00, 0x00, 
  0x00, 0x00, 0x00, 0x00, 0x00, 0x00, 0x00, 0x00, 0x3A, 0x00, 0x00, 0xF9, 
  0xFF, 0xFF, 0xFF, 0x00, 0x00, 0x04, 0x00, 0x00, 0x00, 0x00, 0x00, 0x00, 
  0x00, 0x00, 0x00, 0x00, 0x00, 0x00, 0x00, 0x00, 0x00, 0x00, 0x00, 0x00, 
  0x00, 0x00, 0x00, 0x00, 0x44, 0x00, 0x00, 0xFD, 0xFF, 0xFF, 0xFF, 0x00, 
  0x00, 0x02, 0x00, 0x00, 0x00, 0x00, 0x00, 0x00, 0x00, 0x00, 0x00, 0x00, 
  0x00, 0x00, 0x00, 0x00, 0x00, 0x00, 0x00, 0x00, 0x00, 0x00, 0x00, 0x00, 
  0x98, 0x00, 0x00, 0xFA, 0xFF, 0xFF, 0x3F, 0x00, 0x00, 0x00, 0x00, 0x00, 
  0x00, 0x00, 0x00, 0x00, 0x00, 0x00, 0x00, 0x00, 0x00, 0x00, 0x00, 0x00, 
  0x00, 0x00, 0x00, 0x00, 0x00, 0x00, 0x00, 0x00, 0x60, 0x02, 0x40, 0xA0, 
  0xFF, 0xFF, 0xBF, 0x00, 0x00, 0x02, 0x00, 0x00, 0x00, 0x00, 0x00, 0x00, 
  0x00, 0x00, 0x00, 0x00, 0x00, 0x00, 0x00, 0x00, 0x00, 0x00, 0x00, 0x00, 
  0x00, 0x00, 0x00, 0x00, 0x80, 0x0D, 0x80, 0xC5, 0xFF, 0xFF, 0x4F, 0x01, 
  0x00, 0x00, 0x00, 0x00, 0x00, 0x00, 0x00, 0x00, 0x00, 0x00, 0x00, 0x00, 
  0x00, 0x00, 0x00, 0x00, 0x00, 0x00, 0x00, 0x00, 0x00, 0x00, 0x00, 0x00, 
  0x80, 0x24, 0xA0, 0x00, 0xFF, 0xFF, 0x8F, 0x00, 0x80, 0x00, 0x00, 0x00, 
  0x00, 0x00, 0x00, 0x00, 0x00, 0x00, 0x00, 0x00, 0x00, 0x00, 0x00, 0x00, 
  0x00, 0x00, 0x00, 0x00, 0x00, 0x00, 0x00, 0x00, 0x00, 0x9A, 0x40, 0x02, 
  0xFF, 0xFF, 0x8F, 0x00, 0x40, 0x00, 0x00, 0x00, 0x00, 0x00, 0x00, 0x00, 
  0x00, 0x00, 0x00, 0x00, 0x00, 0x00, 0x00, 0x00, 0x00, 0x00, 0x00, 0x00, 
  0x00, 0x00, 0x00, 0x00, 0x00, 0x56, 0x61, 0x01, 0xFF, 0xFF, 0x0F, 0x00, 
  0x38, 0x00, 0x00, 0x00, 0x00, 0x00, 0x00, 0x00, 0x00, 0x00, 0x00, 0x00, 
  0x00, 0x00, 0x00, 0x00, 0x00, 0x00, 0x00, 0x00, 0x00, 0x00, 0x00, 0x00, 
  0x00, 0xA0, 0xA2, 0x00, 0xFF, 0xFF, 0x8F, 0x00, 0x08, 0x00, 0x00, 0x00, 
  0x00, 0x00, 0x00, 0x00, 0x00, 0x00, 0x00, 0x00, 0x00, 0x00, 0x00, 0x00, 
  0x00, 0x00, 0x00, 0x00, 0x00, 0x00, 0x00, 0x00, 0x00, 0x40, 0x11, 0x00, 
  0xFF, 0xFF, 0x8F, 0x01, 0x04, 0x00, 0x00, 0x00, 0x00, 0x00, 0x00, 0x00, 
  0x00, 0x00, 0x00, 0x00, 0x00, 0x00, 0x00, 0x00, 0x00, 0x00, 0x00, 0x00, 
  0x00, 0x00, 0x00, 0x00, 0x00, 0x00, 0x65, 0x00, 0xFF, 0xFF, 0x0F, 0x00, 
  0x09, 0x00, 0x00, 0x00, 0x00, 0x00, 0x00, 0x00, 0x00, 0x00, 0x00, 0x00, 
  0x00, 0x00, 0x00, 0x00, 0x00, 0x00, 0x00, 0x00, 0x00, 0x00, 0x00, 0x00, 
  0x00, 0x00, 0x9A, 0x80, 0xFF, 0xFF, 0x8F, 0x40, 0x02, 0x00, 0x00, 0x00, 
  0x00, 0x00, 0x00, 0x00, 0x00, 0x00, 0x00, 0x00, 0x00, 0x00, 0x00, 0x00, 
  0x00, 0x00, 0x00, 0x00, 0x00, 0x00, 0x00, 0x00, 0x00, 0x00, 0x64, 0x80, 
  0xFF, 0xFF, 0x4F, 0xA0, 0x00, 0x00, 0x00, 0x00, 0x00, 0x00, 0x00, 0x00, 
  0x00, 0x00, 0x00, 0x00, 0x00, 0x00, 0x00, 0x00, 0x00, 0x00, 0x00, 0x00, 
  0x00, 0x00, 0x00, 0x00, 0x00, 0x00, 0x10, 0xC0, 0xFF, 0xFF, 0x0F, 0x50, 
  0x00, 0x00, 0x00, 0x00, 0x00, 0x00, 0x00, 0x00, 0x00, 0x00, 0x00, 0x00, 
  0x00, 0x00, 0x00, 0x00, 0x00, 0x00, 0x00, 0x00, 0x00, 0x00, 0x00, 0x00, 
  0x00, 0x00, 0x20, 0xC0, 0xFF, 0xFF, 0x8F, 0x29, 0x00, 0x00, 0x00, 0x00, 
  0x00, 0x00, 0x00, 0x00, 0x00, 0x00, 0x00, 0x00, 0x00, 0x00, 0x00, 0x00, 
  0x00, 0x00, 0x00, 0x00, 0x00, 0x00, 0x00, 0x00, 0x00, 0x00, 0x00, 0xC0, 
  0xFF, 0xFF, 0x8F, 0x04, 0x00, 0x00, 0x00, 0x00, 0x00, 0x00, 0x00, 0x00, 
  0x00, 0x00, 0x00, 0x00, 0x00, 0x00, 0x00, 0x00, 0x00, 0x00, 0x00, 0x00, 
  0x00, 0x00, 0x00, 0x00, 0x00, 0x00, 0x00, 0xC0, 0xFF, 0xFF, 0x0F, 0x09, 
  0x00, 0x00, 0x00, 0x00, 0x00, 0x00, 0x00, 0x00, 0x00, 0x00, 0x00, 0x00, 
  0x00, 0x00, 0x00, 0x00, 0x00, 0x00, 0x00, 0x00, 0x00, 0x00, 0x00, 0x00, 
  0x00, 0x00, 0x00, 0x80, 0xFF, 0xFF, 0x9F, 0x01, 0x00, 0x00, 0x00, 0x00, 
  0x00, 0x00, 0x00, 0x00, 0x00, 0x00, 0x00, 0x00, 0x00, 0x00, 0x00, 0x00, 
  0x00, 0x00, 0x00, 0x00, 0x00, 0x00, 0x00, 0x00, 0x00, 0x00, 0x00, 0x00, 
  0xFF, 0xFF, 0x8F, 0x00, 0x00, 0x00, 0x00, 0x00, 0x00, 0x00, 0x00, 0x00, 
  0x00, 0x00, 0x00, 0x00, 0x00, 0x00, 0x00, 0x00, 0x00, 0x00, 0x00, 0x00, 
  0x00, 0x00, 0x00, 0x00, 0x00, 0x00, 0x00, 0x00, 0xF0, 0xFF, 0x0F, 0x00, 
  0x00, 0x00, 0x00, 0x00, 0x00, 0x00, 0x00, 0x00, 0x00, 0x00, 0x00, 0x00, 
  0x00, 0x00, 0x00, 0x00, 0x00, 0x00, 0x00, 0x00, 0x00, 0x00, 0x00, 0x00, 
  0x00, 0x00, 0x00, 0x00, 0x80, 0xFF, 0x1F, 0x00, 0x00, 0x00, 0x00, 0x00, 
  0x00, 0x00, 0x00, 0x00, 0x00, 0x00, 0x00, 0x00, 0x00, 0x00, 0x00, 0x00, 
  0x00, 0x00, 0x00, 0x00, 0x00, 0x00, 0x00, 0x00, 0x00, 0x00, 0x00, 0x00, 
  0x00, 0xB0, 0x0F, 0x00, 0x00, 0x00, 0x00, 0x00, 0x00, 0x00, 0x00, 0x00, 
  0x00, 0x00, 0x00, 0x00, };
